<?xml version="1.0" encoding="utf-8"?>
<!-- Generator: Adobe Illustrator 16.0.0, SVG Export Plug-In . SVG Version: 6.00 Build 0)  -->
<!DOCTYPE svg PUBLIC "-//W3C//DTD SVG 1.1//EN" "http://www.w3.org/Graphics/SVG/1.1/DTD/svg11.dtd">
<svg version="1.1" id="Layer_1" xmlns="http://www.w3.org/2000/svg" xmlns:xlink="http://www.w3.org/1999/xlink" x="0px" y="0px"
	 width="302.709px" height="57.858px" viewBox="0 0 302.709 57.858" enable-background="new 0 0 302.709 57.858"
	 xml:space="preserve">
<g>
	<path fill="#FFFFFF" d="M4.666,9.624c0.122-2.218,0.181-4.379,2.302-6.313c0.969-0.967,3.453-2.787,9.271-2.787
		c2.728,0,4.363,0.34,6.545,0.737v8.022c-0.667-0.226-1.213-0.397-2.303-0.397c-3.393,0-3.333,2.16-3.333,3.697h5.635v6.367h-5.635
		v22.415H4.666V18.95H0v-6.367h4.666V9.624z"/>
	<path fill="#FFFFFF" d="M24.082,20.771c0.486-2.501,1.152-5.629,5.635-7.847c3.514-1.705,7.999-1.992,11.271-1.992
		c14.905,0,14.905,7.224,14.905,10.749v16.045c0,1.931,0.184,2.443,1.09,3.64H44.685v-2.278c-1.575,1.028-4.483,2.956-10.361,2.956
		c-7.879,0-11.331-4.493-11.331-9.495c0-1.767,0.423-4.21,2.664-6.313c2.849-2.729,6.243-3.185,11.757-3.869
		c3.453-0.455,4.786-0.742,6.665-1.251c-0.061-1.992-0.666-3.357-4.242-3.357c-2.848,0-3.636,0.682-4.06,2.73L24.082,20.771z
		 M40.321,28.789c-1.029,0.233-2.121,0.459-3.212,0.803c-2.423,0.906-2.545,2.271-2.545,2.616c0,0.795,0.729,2.274,3.091,2.274
		c1.758,0,4.665-1.085,5.757-3.357c0.605-1.25,0.605-2.446,0.605-3.468C42.805,28.052,41.594,28.452,40.321,28.789z"/>
	<path fill="#FFFFFF" d="M69.368,15.826c1.031-1.369,3.395-4.669,10.301-4.669c4.969,0,7.453,1.82,8.483,2.734
		c2.969,2.729,3.152,6.653,3.152,8.871v18.603H78.82V25.264c0-1.479-0.06-4.436-4.24-4.436c-4.424,0-4.544,3.242-4.544,4.837v15.7
		H57.554V11.899h11.814V15.826z"/>
	<path fill="#FFFFFF" d="M125.804,33.458c-0.788,1.591-1.453,2.845-3.029,4.321c-1.756,1.705-5.817,4.723-13.09,4.723
		c-10.361,0-16.723-6.601-16.723-16.099c0-4.891,1.877-8.872,4.484-11.373c4.363-4.267,10.604-4.496,12.966-4.496
		c2.122,0,8.121,0.058,12.907,4.607c1.211,1.14,1.756,1.935,2.485,3.07l-9.513,5.063c-0.789-2.619-2.303-4.493-5.271-4.493
		c-3.817,0-5.697,3.525-5.697,7.961c0,2.336,0.486,6.772,5.394,6.772c3.817,0,5.029-3.415,5.575-4.948L125.804,33.458z"/>
	<path fill="#FFFFFF" d="M125.145,11.899h13.029l3.087,12.684c0.668,3.469,0.849,4.268,1.457,8.649
		c0.544-4.611,0.785-5.575,1.514-8.99l3.149-12.343h12.968l-11.453,31.172c-0.849,2.214-1.695,4.607-3.696,6.428
		c-2.666,2.443-4.848,2.501-8.726,2.501c-2.786,0-4.119-0.111-6.605-0.395v-8.362c1.032,0.054,2.364,0.168,3.515,0.168
		c1.697,0,2.667-0.34,2.667-1.422c0-0.513-0.728-2.333-0.97-3.014L125.145,11.899z"/>
	<g>
		<g>
			<path fill="#FFFFFF" d="M184.86,25.597c1.878,0.452,4.304,1.025,6.12,2.902c1.271,1.305,1.938,3.014,1.938,4.776
				c0,3.984-3.332,8.306-10.846,8.306c-3.694,0-6.06-1.14-7.273-1.932c-2.057-1.315-3.329-3.017-4.36-5.35l3.515-1.14
				c0.666,2.444,3.153,5.403,8.119,5.403c4.97,0,7.334-2.501,7.334-5.342c0-3.529-3.823-4.382-6.181-4.837
				c-1.093-0.226-2.304-0.455-3.454-0.685c-2.665-0.569-7.514-1.705-7.514-6.998c0-2.783,1.695-7.563,10.358-7.563
				c2.849,0,5.152,0.627,6.729,1.537c2.604,1.479,3.328,3.755,3.572,4.607l-3.45,0.796c-0.184-0.741-0.549-2.046-2.487-3.07
				c-1.215-0.685-2.849-0.968-4.547-0.968c-2.178,0-6.66,0.513-6.66,4.551c0,2.959,2.845,3.697,6.059,4.378L184.86,25.597z"/>
			<path fill="#FFFFFF" d="M203.402,35.152c0,2.559,0.968,3.297,2.361,3.297c1.272,0,2.727-0.792,3.999-1.702v3.354
				c-1.451,0.914-2.849,1.308-4.608,1.308c-5.209,0-5.209-2.729-5.209-7.907V16.61h-6.056v-2.845h6.056V2.218h3.457v11.548h6.36
				v2.845h-6.36V35.152z"/>
			<path fill="#FFFFFF" d="M234.485,40.899h-3.576v-4.894c-0.243,0.569-0.663,1.479-1.455,2.443
				c-2.239,2.619-5.392,3.074-7.696,3.074c-5.571,0-7.936-3.3-8.663-5.006c-0.968-2.103-1.028-4.891-1.028-9.44V13.766h3.572v14.049
				c0.061,5.916,0.061,10.635,6.542,10.635c1.638,0,4.06-0.226,6.124-2.271c2.544-2.505,2.604-5.403,2.604-10.47V13.766h3.576
				V40.899z"/>
			<path fill="#FFFFFF" d="M262.898,40.899h-3.512v-4.894c-1.153,3.185-4.547,5.518-8.847,5.518
				c-6.786,0-11.938-5.518-11.938-14.221c0-8.757,5.575-14.106,12.483-14.106c4.304,0,7.453,2.275,8.302,4.948V0.741h3.512V40.899z
				 M257.627,19.169c-1.09-1.423-3.268-2.898-6.421-2.898c-5.697,0-8.729,4.772-8.729,11.032c0,4.095,1.337,11.031,8.606,11.031
				c8.302,0,8.359-8.244,8.42-10.748C259.569,23.834,259.021,20.989,257.627,19.169z"/>
			<path fill="#FFFFFF" d="M272.411,7.396h-3.512V2.218h3.512V7.396z M272.411,40.899h-3.512V13.766h3.512V40.899z"/>
			<path fill="#FFFFFF" d="M289.498,41.581c-8.42,0-13.027-6.26-13.027-13.881c0-7.052,3.819-14.562,13.146-14.562
				c9.155,0,13.031,7.052,13.093,14.049C302.769,35.436,297.681,41.581,289.498,41.581z M289.677,15.987
				c-2.541,0-5.023,0.968-6.661,2.78c-2.486,2.73-2.727,6.772-2.727,8.99c0,7.735,4.242,10.867,9.208,10.867
				c6.363,0,9.33-4.723,9.395-11.039C298.892,26.049,299.01,15.987,289.677,15.987z"/>
		</g>
	</g>
	<path fill="#FFFFFF" d="M167.127,51.401h-3.457V0h3.457V51.401z"/>
</g>
</svg>
